<?xml version="1.0" encoding="utf-8"?>
<!-- Svg Vector Icons : http://www.onlinewebfonts.com/icon -->
<!DOCTYPE svg PUBLIC "-//W3C//DTD SVG 1.1//EN" "http://www.w3.org/Graphics/SVG/1.1/DTD/svg11.dtd">
<svg version="1.1" xmlns="http://www.w3.org/2000/svg" xmlns:xlink="http://www.w3.org/1999/xlink" x="0px" y="0px" viewBox="0 0 1000 1000" enable-background="new 0 0 1000 1000" xml:space="preserve">
<metadata> Svg Vector Icons : http://www.onlinewebfonts.com/icon </metadata>
<g><g transform="translate(0.000000,511.000000) scale(0.100000,-0.100000)"><path d="M6960,4164.1c-13.4-29-22.3-336.3-22.3-846.4v-804H5394.2c-1360.9,0-1548-4.5-1592.5-35.6l-49-33.4V1478V511.3l49-33.4c44.5-31.2,231.6-35.6,1592.5-35.6h1543.5v-808.5c0-757.3,2.2-813,40.1-846.4c22.3-22.3,60.1-37.9,84.6-37.9c29,0,561.3,496.7,1441.1,1338.6C9574.8,1114.9,9900,1437.9,9900,1478c0,40.1-325.2,363-1394.3,1389.8C7334.2,3990.3,7100.3,4206.4,7046.9,4206.4C7006.8,4206.4,6975.6,4190.8,6960,4164.1z M8525.8,2527c596.9-572.4,1084.7-1049.1,1082.5-1055.7c0-8.9-550.1-539-1218.3-1178.2L7171.6-869.6l-4.5,739.5c-6.7,721.7-6.7,739.5-53.4,779.6c-44.6,35.6-153.7,37.9-1592.5,37.9H3975.5V1478v790.7h1543.5c1360.9,0,1548,4.5,1592.5,35.6c49,33.4,49,33.4,49,784v748.4l140.3-133.6C7376.5,3627.3,7926.6,3099.4,8525.8,2527z"/><path d="M2801.7,1373.3c-71.3-64.6-708.3-670.4-1414.3-1349.7C416.3-907.4,100-1221.5,100-1261.6c0-66.8,2755.1-2712.8,2837.5-2724c29-4.5,69,8.9,89.1,29c31.2,33.4,35.6,129.2,35.6,848.6v810.7h1532.4c1189.4,0,1543.5,6.7,1585.8,28.9l55.7,29l6.7,966.7c4.5,964.4,4.5,968.9-42.3,1008.9c-44.6,35.7-153.7,37.9-1592.5,37.9H3062.3v813c0,784-2.2,815.2-44.5,857.5c-24.5,24.5-53.5,44.5-66.8,44.5C2939.8,1489.1,2870.7,1437.9,2801.7,1373.3z M2886.3-430.8c44.5-37.9,153.7-40.1,1592.5-40.1h1545.7v-790.7v-790.7H4472.1c-1412.1,0-1554.6-2.2-1592.5-37.9c-37.9-33.4-40.1-86.8-40.1-768.4c0-454.3-8.9-730.5-20-726.1c-42.3,13.4-2418.8,2300.8-2418.8,2325.3c0,13.4,545.7,547.9,1213.9,1187.2l1213.9,1162.6l4.5-741.7C2839.5-375.1,2839.5-392.9,2886.3-430.8z"/></g></g>
</svg>