<?xml version="1.0" encoding="utf-8"?>
<!-- Uploaded to: SVG Repo, www.svgrepo.com, Generator: SVG Repo Mixer Tools -->
<svg width="800px" height="800px" viewBox="0 0 1024 1024" class="icon"  version="1.1" xmlns="http://www.w3.org/2000/svg"><path d="M768 810.7c-23.6 0-42.7-19.1-42.7-42.7s19.1-42.7 42.7-42.7c94.1 0 170.7-76.6 170.7-170.7 0-89.6-70.1-164.3-159.5-170.1L754 383l-10.7-22.7c-42.2-89.3-133-147-231.3-147s-189.1 57.7-231.3 147L270 383l-25.1 1.6c-89.5 5.8-159.5 80.5-159.5 170.1 0 94.1 76.6 170.7 170.7 170.7 23.6 0 42.7 19.1 42.7 42.7s-19.1 42.7-42.7 42.7c-141.2 0-256-114.8-256-256 0-126.1 92.5-232.5 214.7-252.4C274.8 195.7 388.9 128 512 128s237.2 67.7 297.3 174.2C931.5 322.1 1024 428.6 1024 554.7c0 141.1-114.8 256-256 256z" fill="#3688FF" /><path d="M640 789.3c-10.9 0-21.8-4.2-30.2-12.5L512 679l-97.8 97.8c-16.6 16.7-43.7 16.7-60.3 0-16.7-16.7-16.7-43.7 0-60.3l128-128c16.6-16.7 43.7-16.7 60.3 0l128 128c16.7 16.7 16.7 43.7 0 60.3-8.4 8.4-19.3 12.5-30.2 12.5z" fill="#5F6379" /><path d="M512 960c-23.6 0-42.7-19.1-42.7-42.7V618.7c0-23.6 19.1-42.7 42.7-42.7s42.7 19.1 42.7 42.7v298.7c0 23.5-19.1 42.6-42.7 42.6z" fill="#5F6379" /></svg>